<mxfile host="app.diagrams.net" modified="2024-05-15T20:49:02.828Z" agent="Mozilla/5.0 (Windows NT 10.0; Win64; x64) AppleWebKit/537.36 (KHTML, like Gecko) Chrome/124.0.0.0 Safari/537.36" etag="SKcqYg-6jdxQGmB6I4fO" version="24.4.2" type="device">
  <diagram name="Page-1" id="rTv-0CIANCu0vqOWoE32">
    <mxGraphModel dx="1850" dy="537" grid="1" gridSize="10" guides="1" tooltips="1" connect="1" arrows="1" fold="1" page="1" pageScale="1" pageWidth="850" pageHeight="1100" math="0" shadow="0">
      <root>
        <mxCell id="0" />
        <mxCell id="1" parent="0" />
        <mxCell id="5TsTM2TnSopxKeyKzSk4-2" value="" style="swimlane;startSize=0;fontSize=13;" vertex="1" parent="1">
          <mxGeometry x="160" y="110" width="200" height="70" as="geometry" />
        </mxCell>
        <mxCell id="5TsTM2TnSopxKeyKzSk4-6" value="PYTHON SERVER" style="text;html=1;align=center;verticalAlign=middle;resizable=0;points=[];autosize=1;strokeColor=none;fillColor=none;" vertex="1" parent="5TsTM2TnSopxKeyKzSk4-2">
          <mxGeometry x="35" y="20" width="130" height="30" as="geometry" />
        </mxCell>
        <mxCell id="5TsTM2TnSopxKeyKzSk4-5" value="" style="swimlane;startSize=0;" vertex="1" parent="1">
          <mxGeometry x="150" y="420" width="200" height="70" as="geometry" />
        </mxCell>
        <mxCell id="5TsTM2TnSopxKeyKzSk4-8" value="CLIENT BROWSER" style="text;html=1;align=center;verticalAlign=middle;resizable=0;points=[];autosize=1;strokeColor=none;fillColor=none;" vertex="1" parent="5TsTM2TnSopxKeyKzSk4-5">
          <mxGeometry x="35" y="20" width="130" height="30" as="geometry" />
        </mxCell>
        <mxCell id="5TsTM2TnSopxKeyKzSk4-11" value="" style="group" vertex="1" connectable="0" parent="1">
          <mxGeometry x="160" y="300" width="200" height="50" as="geometry" />
        </mxCell>
        <mxCell id="5TsTM2TnSopxKeyKzSk4-4" value="" style="swimlane;startSize=0;" vertex="1" parent="5TsTM2TnSopxKeyKzSk4-11">
          <mxGeometry width="200" height="50" as="geometry" />
        </mxCell>
        <mxCell id="5TsTM2TnSopxKeyKzSk4-7" value="REACT FRONT" style="text;html=1;align=center;verticalAlign=middle;resizable=0;points=[];autosize=1;strokeColor=none;fillColor=none;" vertex="1" parent="5TsTM2TnSopxKeyKzSk4-11">
          <mxGeometry x="25" y="8" width="110" height="30" as="geometry" />
        </mxCell>
        <mxCell id="5TsTM2TnSopxKeyKzSk4-12" value="" style="group" vertex="1" connectable="0" parent="1">
          <mxGeometry x="-30" y="70" width="120" height="110" as="geometry" />
        </mxCell>
        <mxCell id="5TsTM2TnSopxKeyKzSk4-1" value="" style="shape=cylinder3;whiteSpace=wrap;html=1;boundedLbl=1;backgroundOutline=1;size=15;" vertex="1" parent="5TsTM2TnSopxKeyKzSk4-12">
          <mxGeometry x="20" y="30" width="60" height="80" as="geometry" />
        </mxCell>
        <mxCell id="5TsTM2TnSopxKeyKzSk4-10" value="LOCAL STORAGE&lt;div&gt;&lt;br&gt;&lt;/div&gt;" style="text;html=1;align=center;verticalAlign=middle;resizable=0;points=[];autosize=1;strokeColor=none;fillColor=none;" vertex="1" parent="5TsTM2TnSopxKeyKzSk4-12">
          <mxGeometry width="120" height="40" as="geometry" />
        </mxCell>
        <mxCell id="5TsTM2TnSopxKeyKzSk4-13" style="edgeStyle=orthogonalEdgeStyle;rounded=0;orthogonalLoop=1;jettySize=auto;html=1;entryX=0.196;entryY=0.975;entryDx=0;entryDy=0;entryPerimeter=0;" edge="1" parent="1" target="5TsTM2TnSopxKeyKzSk4-4">
          <mxGeometry relative="1" as="geometry">
            <mxPoint x="199" y="420" as="sourcePoint" />
            <Array as="points">
              <mxPoint x="200" y="360" />
              <mxPoint x="199" y="360" />
            </Array>
          </mxGeometry>
        </mxCell>
        <mxCell id="5TsTM2TnSopxKeyKzSk4-14" value="GET /" style="edgeLabel;html=1;align=center;verticalAlign=middle;resizable=0;points=[];" vertex="1" connectable="0" parent="5TsTM2TnSopxKeyKzSk4-13">
          <mxGeometry x="0.214" y="-1" relative="1" as="geometry">
            <mxPoint as="offset" />
          </mxGeometry>
        </mxCell>
        <mxCell id="5TsTM2TnSopxKeyKzSk4-15" style="edgeStyle=orthogonalEdgeStyle;rounded=0;orthogonalLoop=1;jettySize=auto;html=1;entryX=0.5;entryY=1;entryDx=0;entryDy=0;" edge="1" parent="1" source="5TsTM2TnSopxKeyKzSk4-4" target="5TsTM2TnSopxKeyKzSk4-2">
          <mxGeometry relative="1" as="geometry">
            <Array as="points">
              <mxPoint x="260" y="210" />
              <mxPoint x="260" y="210" />
            </Array>
          </mxGeometry>
        </mxCell>
        <mxCell id="5TsTM2TnSopxKeyKzSk4-16" value="GET ALL&amp;nbsp;&lt;div&gt;IMAGES&lt;/div&gt;" style="edgeLabel;html=1;align=center;verticalAlign=middle;resizable=0;points=[];" vertex="1" connectable="0" parent="5TsTM2TnSopxKeyKzSk4-15">
          <mxGeometry x="0.0431" y="-1" relative="1" as="geometry">
            <mxPoint as="offset" />
          </mxGeometry>
        </mxCell>
        <mxCell id="5TsTM2TnSopxKeyKzSk4-19" style="edgeStyle=orthogonalEdgeStyle;rounded=0;orthogonalLoop=1;jettySize=auto;html=1;entryX=1.021;entryY=0.575;entryDx=0;entryDy=0;entryPerimeter=0;endArrow=classicThin;endFill=1;startArrow=classic;startFill=1;" edge="1" parent="1" source="5TsTM2TnSopxKeyKzSk4-2" target="5TsTM2TnSopxKeyKzSk4-1">
          <mxGeometry relative="1" as="geometry" />
        </mxCell>
        <mxCell id="5TsTM2TnSopxKeyKzSk4-20" value="LEER&amp;nbsp;&lt;div&gt;ARCHIVO DATA&lt;/div&gt;" style="edgeLabel;html=1;align=center;verticalAlign=middle;resizable=0;points=[];" vertex="1" connectable="0" parent="5TsTM2TnSopxKeyKzSk4-19">
          <mxGeometry x="0.0033" y="-1" relative="1" as="geometry">
            <mxPoint as="offset" />
          </mxGeometry>
        </mxCell>
        <mxCell id="5TsTM2TnSopxKeyKzSk4-21" style="edgeStyle=orthogonalEdgeStyle;rounded=0;orthogonalLoop=1;jettySize=auto;html=1;entryX=0.883;entryY=-0.073;entryDx=0;entryDy=0;entryPerimeter=0;" edge="1" parent="1" source="5TsTM2TnSopxKeyKzSk4-4" target="5TsTM2TnSopxKeyKzSk4-5">
          <mxGeometry relative="1" as="geometry">
            <Array as="points">
              <mxPoint x="327" y="375" />
            </Array>
          </mxGeometry>
        </mxCell>
        <mxCell id="5TsTM2TnSopxKeyKzSk4-22" value="DISPLAY DE GALERIA" style="edgeLabel;html=1;align=center;verticalAlign=middle;resizable=0;points=[];" vertex="1" connectable="0" parent="5TsTM2TnSopxKeyKzSk4-21">
          <mxGeometry x="-0.0467" relative="1" as="geometry">
            <mxPoint as="offset" />
          </mxGeometry>
        </mxCell>
        <mxCell id="5TsTM2TnSopxKeyKzSk4-43" style="edgeStyle=orthogonalEdgeStyle;rounded=0;orthogonalLoop=1;jettySize=auto;html=1;" edge="1" parent="1" source="5TsTM2TnSopxKeyKzSk4-45">
          <mxGeometry relative="1" as="geometry">
            <mxPoint x="810" y="290" as="targetPoint" />
            <Array as="points">
              <mxPoint x="810" y="260" />
              <mxPoint x="810" y="260" />
            </Array>
          </mxGeometry>
        </mxCell>
        <mxCell id="5TsTM2TnSopxKeyKzSk4-44" value="HTML&amp;nbsp;" style="edgeLabel;html=1;align=center;verticalAlign=middle;resizable=0;points=[];" vertex="1" connectable="0" parent="5TsTM2TnSopxKeyKzSk4-43">
          <mxGeometry x="-0.092" relative="1" as="geometry">
            <mxPoint as="offset" />
          </mxGeometry>
        </mxCell>
        <mxCell id="5TsTM2TnSopxKeyKzSk4-45" value="" style="swimlane;startSize=0;fontSize=13;" vertex="1" parent="1">
          <mxGeometry x="640" y="120" width="200" height="70" as="geometry" />
        </mxCell>
        <mxCell id="5TsTM2TnSopxKeyKzSk4-46" value="PYTHON SERVER" style="text;html=1;align=center;verticalAlign=middle;resizable=0;points=[];autosize=1;strokeColor=none;fillColor=none;" vertex="1" parent="5TsTM2TnSopxKeyKzSk4-45">
          <mxGeometry x="35" y="20" width="130" height="30" as="geometry" />
        </mxCell>
        <mxCell id="5TsTM2TnSopxKeyKzSk4-47" value="" style="swimlane;startSize=0;" vertex="1" parent="1">
          <mxGeometry x="630" y="430" width="200" height="70" as="geometry" />
        </mxCell>
        <mxCell id="5TsTM2TnSopxKeyKzSk4-48" value="CLIENT BROWSER" style="text;html=1;align=center;verticalAlign=middle;resizable=0;points=[];autosize=1;strokeColor=none;fillColor=none;" vertex="1" parent="5TsTM2TnSopxKeyKzSk4-47">
          <mxGeometry x="35" y="20" width="130" height="30" as="geometry" />
        </mxCell>
        <mxCell id="5TsTM2TnSopxKeyKzSk4-49" value="" style="group" vertex="1" connectable="0" parent="1">
          <mxGeometry x="640" y="290" width="200" height="50" as="geometry" />
        </mxCell>
        <mxCell id="5TsTM2TnSopxKeyKzSk4-50" value="" style="swimlane;startSize=0;" vertex="1" parent="5TsTM2TnSopxKeyKzSk4-49">
          <mxGeometry width="200" height="50" as="geometry" />
        </mxCell>
        <mxCell id="5TsTM2TnSopxKeyKzSk4-51" value="REACT FRONT" style="text;html=1;align=center;verticalAlign=middle;resizable=0;points=[];autosize=1;strokeColor=none;fillColor=none;" vertex="1" parent="5TsTM2TnSopxKeyKzSk4-49">
          <mxGeometry x="25" y="8" width="110" height="30" as="geometry" />
        </mxCell>
        <mxCell id="5TsTM2TnSopxKeyKzSk4-52" value="" style="group" vertex="1" connectable="0" parent="1">
          <mxGeometry x="450" y="80" width="120" height="110" as="geometry" />
        </mxCell>
        <mxCell id="5TsTM2TnSopxKeyKzSk4-53" value="" style="shape=cylinder3;whiteSpace=wrap;html=1;boundedLbl=1;backgroundOutline=1;size=15;" vertex="1" parent="5TsTM2TnSopxKeyKzSk4-52">
          <mxGeometry x="20" y="30" width="60" height="80" as="geometry" />
        </mxCell>
        <mxCell id="5TsTM2TnSopxKeyKzSk4-54" value="LOCAL STORAGE&lt;div&gt;&lt;br&gt;&lt;/div&gt;" style="text;html=1;align=center;verticalAlign=middle;resizable=0;points=[];autosize=1;strokeColor=none;fillColor=none;" vertex="1" parent="5TsTM2TnSopxKeyKzSk4-52">
          <mxGeometry width="120" height="40" as="geometry" />
        </mxCell>
        <mxCell id="5TsTM2TnSopxKeyKzSk4-55" style="edgeStyle=orthogonalEdgeStyle;rounded=0;orthogonalLoop=1;jettySize=auto;html=1;entryX=0.196;entryY=0.975;entryDx=0;entryDy=0;entryPerimeter=0;" edge="1" parent="1" target="5TsTM2TnSopxKeyKzSk4-50">
          <mxGeometry relative="1" as="geometry">
            <mxPoint x="679" y="430" as="sourcePoint" />
            <Array as="points">
              <mxPoint x="680" y="370" />
              <mxPoint x="679" y="370" />
            </Array>
          </mxGeometry>
        </mxCell>
        <mxCell id="5TsTM2TnSopxKeyKzSk4-56" value="APRETA BOTON&lt;div&gt;&amp;nbsp;DOWNLOAD&lt;/div&gt;" style="edgeLabel;html=1;align=center;verticalAlign=middle;resizable=0;points=[];" vertex="1" connectable="0" parent="5TsTM2TnSopxKeyKzSk4-55">
          <mxGeometry x="0.214" y="-1" relative="1" as="geometry">
            <mxPoint as="offset" />
          </mxGeometry>
        </mxCell>
        <mxCell id="5TsTM2TnSopxKeyKzSk4-57" style="edgeStyle=orthogonalEdgeStyle;rounded=0;orthogonalLoop=1;jettySize=auto;html=1;entryX=0.5;entryY=1;entryDx=0;entryDy=0;" edge="1" parent="1" source="5TsTM2TnSopxKeyKzSk4-50" target="5TsTM2TnSopxKeyKzSk4-45">
          <mxGeometry relative="1" as="geometry" />
        </mxCell>
        <mxCell id="5TsTM2TnSopxKeyKzSk4-58" value="POST PIDIENDO&lt;div&gt;IMAGEN&lt;/div&gt;" style="edgeLabel;html=1;align=center;verticalAlign=middle;resizable=0;points=[];" vertex="1" connectable="0" parent="5TsTM2TnSopxKeyKzSk4-57">
          <mxGeometry x="0.0431" y="-1" relative="1" as="geometry">
            <mxPoint as="offset" />
          </mxGeometry>
        </mxCell>
        <mxCell id="5TsTM2TnSopxKeyKzSk4-59" style="edgeStyle=orthogonalEdgeStyle;rounded=0;orthogonalLoop=1;jettySize=auto;html=1;entryX=1.021;entryY=0.575;entryDx=0;entryDy=0;entryPerimeter=0;startArrow=classic;startFill=1;" edge="1" parent="1" source="5TsTM2TnSopxKeyKzSk4-45" target="5TsTM2TnSopxKeyKzSk4-53">
          <mxGeometry relative="1" as="geometry" />
        </mxCell>
        <mxCell id="5TsTM2TnSopxKeyKzSk4-60" value="COPIAR&amp;nbsp;&lt;div&gt;IMAGEN&amp;nbsp;&lt;/div&gt;" style="edgeLabel;html=1;align=center;verticalAlign=middle;resizable=0;points=[];" vertex="1" connectable="0" parent="5TsTM2TnSopxKeyKzSk4-59">
          <mxGeometry x="0.0033" y="-1" relative="1" as="geometry">
            <mxPoint as="offset" />
          </mxGeometry>
        </mxCell>
        <mxCell id="5TsTM2TnSopxKeyKzSk4-61" style="edgeStyle=orthogonalEdgeStyle;rounded=0;orthogonalLoop=1;jettySize=auto;html=1;entryX=0.883;entryY=-0.073;entryDx=0;entryDy=0;entryPerimeter=0;" edge="1" parent="1" source="5TsTM2TnSopxKeyKzSk4-50" target="5TsTM2TnSopxKeyKzSk4-47">
          <mxGeometry relative="1" as="geometry">
            <Array as="points">
              <mxPoint x="807" y="385" />
            </Array>
          </mxGeometry>
        </mxCell>
        <mxCell id="5TsTM2TnSopxKeyKzSk4-62" value="HTML&amp;nbsp;" style="edgeLabel;html=1;align=center;verticalAlign=middle;resizable=0;points=[];" vertex="1" connectable="0" parent="5TsTM2TnSopxKeyKzSk4-61">
          <mxGeometry x="-0.0467" relative="1" as="geometry">
            <mxPoint as="offset" />
          </mxGeometry>
        </mxCell>
        <mxCell id="5TsTM2TnSopxKeyKzSk4-63" style="edgeStyle=orthogonalEdgeStyle;rounded=0;orthogonalLoop=1;jettySize=auto;html=1;entryX=0.864;entryY=0.019;entryDx=0;entryDy=0;entryPerimeter=0;" edge="1" parent="1" source="5TsTM2TnSopxKeyKzSk4-2" target="5TsTM2TnSopxKeyKzSk4-4">
          <mxGeometry relative="1" as="geometry">
            <Array as="points">
              <mxPoint x="333" y="210" />
              <mxPoint x="333" y="210" />
            </Array>
          </mxGeometry>
        </mxCell>
        <mxCell id="5TsTM2TnSopxKeyKzSk4-64" value="DATA EN&amp;nbsp;&lt;div&gt;JSON&lt;/div&gt;" style="edgeLabel;html=1;align=center;verticalAlign=middle;resizable=0;points=[];" vertex="1" connectable="0" parent="5TsTM2TnSopxKeyKzSk4-63">
          <mxGeometry x="-0.0266" y="-2" relative="1" as="geometry">
            <mxPoint as="offset" />
          </mxGeometry>
        </mxCell>
      </root>
    </mxGraphModel>
  </diagram>
</mxfile>
